<svg width="37" height="37" viewBox="0 0 37 37" fill="none" xmlns="http://www.w3.org/2000/svg">
<path opacity="0.35" fill-rule="evenodd" clip-rule="evenodd" d="M18.5 36C28.165 36 36 28.165 36 18.5C36 8.83502 28.165 1 18.5 1C8.83502 1 1 8.83502 1 18.5C1 28.165 8.83502 36 18.5 36Z" stroke="#222325" stroke-width="1.5"/>
<g clip-path="url(#clip0_10077_448)">
<path d="M23.1667 10.6667H14.8334C12.5322 10.6667 10.6667 12.5322 10.6667 14.8334V23.1667C10.6667 25.4679 12.5322 27.3334 14.8334 27.3334H23.1667C25.4679 27.3334 27.3334 25.4679 27.3334 23.1667V14.8334C27.3334 12.5322 25.4679 10.6667 23.1667 10.6667Z" stroke="#222325" stroke-width="2" stroke-linecap="round" stroke-linejoin="round"/>
<path d="M22.3333 18.475C22.4361 19.1685 22.3176 19.8769 21.9947 20.4992C21.6718 21.1215 21.1609 21.6262 20.5346 21.9414C19.9083 22.2566 19.1986 22.3663 18.5064 22.255C17.8142 22.1436 17.1747 21.8167 16.679 21.321C16.1832 20.8252 15.8564 20.1857 15.745 19.4935C15.6336 18.8013 15.7433 18.0916 16.0585 17.4653C16.3737 16.8391 16.8784 16.3281 17.5007 16.0052C18.1231 15.6823 18.8314 15.5638 19.5249 15.6667C20.2324 15.7716 20.8873 16.1012 21.393 16.6069C21.8987 17.1126 22.2283 17.7676 22.3333 18.475Z" stroke="#222325" stroke-width="2" stroke-linecap="round" stroke-linejoin="round"/>
<path d="M23.5833 14.4167H23.5916" stroke="#222325" stroke-width="2" stroke-linecap="round" stroke-linejoin="round"/>
</g>
<defs>
<clipPath id="clip0_10077_448">
<rect width="20" height="20" fill="white" transform="translate(9 9)"/>
</clipPath>
</defs>
</svg>
